Coordinates
version=1
nRows=5
nColumns=42
inDegrees=yes

Units are S.I. units (second, meters, Newtons, ...)
If the header above contains a line with 'inDegrees', this indicates whether rotational values are in degrees (yes) or radians (no).

endheader
time	pelvis_tilt	pelvis_list	pelvis_rotation	pelvis_tx	pelvis_ty	pelvis_tz	hip_flexion_r	hip_adduction_r	hip_rotation_r	knee_angle_r	knee_adduction_r	knee_angle_r_beta	ankle_angle_r	subtalar_angle_r	mtp_angle_r	hip_flexion_l	hip_adduction_l	hip_rotation_l	knee_angle_l	knee_adduction_l	knee_angle_l_beta	ankle_angle_l	subtalar_angle_l	mtp_angle_l	lumbar_extension	lumbar_bending	lumbar_rotation	arm_flex_r	arm_add_r	arm_rot_r	elbow_flex_r	pro_sup_r	wrist_flex_r	wrist_dev_r	arm_flex_l	arm_add_l	arm_rot_l	elbow_flex_l	pro_sup_l	wrist_flex_l	wrist_dev_l
      5.65000000	      5.68238355	     -1.73773472	     -3.97849846	     -0.10887911	      0.91141793	      0.29951172	     11.84133859	     -5.95220468	    -18.49041690	     43.98484633	      0.11467928	      0.76768039	     21.95945586	      6.08328316	     -7.50024277	     25.73066282	     -9.01965970	     -7.66882415	     46.89690551	     -0.18442003	      0.81850541	      3.75219993	    -15.93565301	     -7.50024277	    -22.38593001	      4.24885271	     -1.72900958	     16.53358345	    -18.79647625	     22.04815800	     46.82845755	     90.00000001	      0.00000000	      0.00000000	    -16.21740137	     -8.41342565	    -13.06382276	     64.58930366	     90.00000001	      0.00000000	      0.00000000
      5.66000000	      6.03247260	     -1.91537377	     -4.31490657	     -0.10517855	      0.91095422	      0.29905503	     11.30151039	     -5.69265022	    -17.01442010	     44.16975274	      0.76123180	      0.77090762	     22.25334425	      4.14202826	     -7.50023334	     24.90545948	     -8.94218242	     -8.48136164	     46.80204205	     -0.86999172	      0.81684973	      5.08561704	    -15.90330816	     -7.50023334	    -22.49832260	      4.24445398	     -1.72938157	     16.84525886	    -18.50495092	     22.07990004	     46.18197760	     90.00000001	      0.00000000	      0.00000000	    -16.00440165	     -8.42683038	    -13.18277803	     64.05449562	     90.00000001	      0.00000000	      0.00000000
      5.67000000	      6.30293741	     -2.09520472	     -4.50936777	     -0.10144700	      0.91048212	      0.29848553	     10.86580303	     -5.47307040	    -16.71286209	     44.34529357	      0.66576071	      0.77397138	     22.38976666	      3.82969566	     -7.50023118	     24.24288089	     -8.84826505	     -8.99383369	     46.81050801	     -1.40303721	      0.81699749	      5.82205104	    -16.22083699	     -7.50023118	    -22.51469679	      4.26515837	     -1.82761813	     16.83022003	    -18.32076348	     22.03270165	     46.16025092	     90.00000001	      0.00000000	      0.00000000	    -15.97843526	     -8.45393288	    -13.21627696	     63.94086008	     90.00000001	      0.00000000	      0.00000000
      5.68000000	      6.47225272	     -2.25853696	     -4.73098265	     -0.09776458	      0.91010505	      0.29788325	     10.49388362	     -5.24349291	    -15.87220035	     44.44186319	      0.93600077	      0.77565684	     22.45416245	      2.79914913	     -7.50022156	     23.74229270	     -8.81239344	    -10.07053862	     46.84997795	     -2.30949324	      0.81768637	      6.70721565	    -15.39502008	     -7.50022156	    -22.42600480	      4.26926447	     -1.81529767	     16.70445898	    -17.98841248	     21.54563930	     45.92249078	     90.00000001	      0.00000000	      0.00000000	    -15.84273143	     -8.41827831	    -13.33260757	     63.61673992	     90.00000001	      0.00000000	      0.00000000
      5.69000000	      6.65761841	     -2.38188175	     -4.86147475	     -0.09413432	      0.90993566	      0.29710653	     10.07416014	     -5.08973911	    -15.62918722	     44.46222101	      0.85386652	      0.77601215	     22.61414377	      2.59291796	     -7.50021938	     23.22209770	     -8.71547520	    -10.69126852	     46.86709512	     -2.86446782	      0.81798512	      7.37973149	    -15.56068769	     -7.50021938	    -22.36208933	      4.25960302	     -1.91693570	     16.57464785	    -17.80071046	     21.42853385	     45.88446064	     90.00000001	      0.00000000	      0.00000000	    -15.78097453	     -8.46782088	    -13.36178601	     63.49947043	     90.00000001	      0.00000000	      0.00000000
